# Blender v2.90.1 OBJ File: 'table.blend'
# www.blender.org
mtllib table.mtl
o Cube_Cube.001
v -4.997920 2.400789 2.114390
v -4.997920 2.786348 2.114390
v -4.997920 2.400789 -2.114390
v -4.997920 2.786348 -2.114390
v 4.997920 2.400789 2.114390
v 4.997920 2.786348 2.114390
v 4.997920 2.400789 -2.114390
v 4.997920 2.786348 -2.114390
v 4.502750 2.829252 -1.625463
v 4.502750 -6.891709 -1.625463
v 4.502750 2.829252 -2.139294
v 4.502750 -6.891709 -2.139294
v 5.011907 2.829252 -1.625463
v 5.011907 -6.891709 -1.625463
v 5.011907 2.829252 -2.139294
v 5.011907 -6.891709 -2.139294
v -5.011512 2.829252 -1.626425
v -5.011512 -6.891709 -1.626425
v -5.011512 2.829252 -2.140256
v -5.011512 -6.891709 -2.140256
v -4.502356 2.829252 -1.626425
v -4.502356 -6.891709 -1.626425
v -4.502356 2.829252 -2.140256
v -4.502356 -6.891709 -2.140256
v -5.011689 2.829252 2.139536
v -5.011689 -6.891709 2.139536
v -5.011689 2.829252 1.625705
v -5.011689 -6.891709 1.625705
v -4.502532 2.829252 2.139536
v -4.502532 -6.891709 2.139536
v -4.502532 2.829252 1.625705
v -4.502532 -6.891709 1.625705
v 4.502075 2.829252 2.139536
v 4.502075 -6.891709 2.139536
v 4.502075 2.829252 1.625705
v 4.502075 -6.891709 1.625705
v 5.011232 2.829252 2.139536
v 5.011232 -6.891709 2.139536
v 5.011232 2.829252 1.625705
v 5.011232 -6.891709 1.625705
v 4.909557 2.407602 -1.755505
v -4.811403 2.407603 -1.755505
v 4.909557 2.407602 -1.937316
v -4.811403 2.407603 -1.937316
v 4.909557 1.899867 -1.755505
v -4.811403 1.899867 -1.755505
v 4.909557 1.899867 -1.937316
v -4.811403 1.899867 -1.937316
v 4.909557 2.407602 1.944099
v -4.811403 2.407603 1.944099
v 4.909557 2.407602 1.762288
v -4.811403 2.407603 1.762288
v 4.909557 1.899867 1.944099
v -4.811403 1.899867 1.944099
v 4.909557 1.899867 1.762288
v -4.811403 1.899867 1.762288
v 4.840259 2.407602 -1.698071
v 4.840259 2.407603 1.852520
v 4.658448 2.407602 -1.698071
v 4.658448 2.407603 1.852520
v 4.840259 1.899867 -1.698071
v 4.840259 1.899867 1.852520
v 4.658448 1.899867 -1.698071
v 4.658448 1.899867 1.852520
v -4.654180 2.407602 -1.698071
v -4.654180 2.407603 1.852520
v -4.835991 2.407602 -1.698071
v -4.835990 2.407603 1.852520
v -4.654180 1.899867 -1.698071
v -4.654180 1.899867 1.852520
v -4.835991 1.899867 -1.698071
v -4.835990 1.899867 1.852520
vt 0.747067 0.062308
vt 0.789862 0.062308
vt 0.789862 0.979193
vt 0.747067 0.979193
vt 0.683175 0.046212
vt 0.639473 0.046212
vt 0.639473 0.967327
vt 0.683175 0.967327
vt 0.173720 0.040218
vt 0.223884 0.040218
vt 0.223884 0.957103
vt 0.173720 0.957103
vt 0.694685 -0.009822
vt 0.732325 -0.009822
vt 0.732325 0.982806
vt 0.694685 0.982806
vt 0.125000 0.500000
vt 0.375000 0.500000
vt 0.375000 0.750000
vt 0.125000 0.750000
vt 0.652156 0.995180
vt 0.652156 0.008016
vt 0.995303 0.008016
vt 0.995303 0.995180
vt 0.642339 0.963829
vt 0.642339 0.082286
vt 0.680495 0.082285
vt 0.680495 0.963829
vt 0.640131 0.964118
vt 0.640131 0.082084
vt 0.679798 0.082084
vt 0.679798 0.964118
vt 0.642339 0.963829
vt 0.642339 0.082286
vt 0.680495 0.082285
vt 0.680495 0.963829
vt 0.642339 0.963829
vt 0.642339 0.082286
vt 0.680495 0.082285
vt 0.680495 0.963829
vt 0.282936 0.904699
vt 0.329793 0.904699
vt 0.329793 0.991418
vt 0.282936 0.991418
vt 0.625000 0.500000
vt 0.875000 0.500000
vt 0.875000 0.750000
vt 0.625000 0.750000
vt 0.642339 0.963829
vt 0.642339 0.082286
vt 0.680495 0.082285
vt 0.680495 0.963829
vt 0.640131 0.964118
vt 0.640131 0.082084
vt 0.679798 0.082084
vt 0.679798 0.964118
vt 0.642339 0.963829
vt 0.642339 0.082286
vt 0.680495 0.082285
vt 0.680495 0.963829
vt 0.642339 0.963829
vt 0.642339 0.082286
vt 0.680495 0.082285
vt 0.680495 0.963829
vt 0.282936 0.904699
vt 0.329793 0.904699
vt 0.329793 0.991418
vt 0.282936 0.991418
vt 0.625000 0.500000
vt 0.875000 0.500000
vt 0.875000 0.750000
vt 0.625000 0.750000
vt 0.642339 0.963829
vt 0.642339 0.082286
vt 0.680495 0.082285
vt 0.680495 0.963829
vt 0.640131 0.964118
vt 0.640131 0.082084
vt 0.679798 0.082084
vt 0.679798 0.964118
vt 0.642339 0.963829
vt 0.642339 0.082286
vt 0.680495 0.082285
vt 0.680495 0.963829
vt 0.642339 0.963829
vt 0.642339 0.082286
vt 0.680495 0.082285
vt 0.680495 0.963829
vt 0.282936 0.904699
vt 0.329793 0.904699
vt 0.329793 0.991418
vt 0.282936 0.991418
vt 0.625000 0.500000
vt 0.875000 0.500000
vt 0.875000 0.750000
vt 0.625000 0.750000
vt 0.642339 0.963829
vt 0.642339 0.082286
vt 0.680495 0.082285
vt 0.680495 0.963829
vt 0.640131 0.964118
vt 0.640131 0.082084
vt 0.679798 0.082084
vt 0.679798 0.964118
vt 0.642339 0.963829
vt 0.642339 0.082286
vt 0.680495 0.082285
vt 0.680495 0.963829
vt 0.642339 0.963829
vt 0.642339 0.082286
vt 0.680495 0.082285
vt 0.680495 0.963829
vt 0.282936 0.904699
vt 0.329793 0.904699
vt 0.329793 0.991418
vt 0.282936 0.991418
vt 0.625000 0.500000
vt 0.875000 0.500000
vt 0.875000 0.750000
vt 0.625000 0.750000
vt 0.375000 0.000000
vt 0.625000 0.000000
vt 0.625000 0.250000
vt 0.375000 0.250000
vt 0.067070 0.989468
vt 0.067070 0.228823
vt 0.084504 0.228823
vt 0.084505 0.989468
vt 0.375000 0.500000
vt 0.625000 0.500000
vt 0.625000 0.750000
vt 0.375000 0.750000
vt 0.625000 1.000000
vt 0.375000 1.000000
vt 0.125000 0.500000
vt 0.125000 0.750000
vt 0.875000 0.500000
vt 0.875000 0.750000
vt 0.375000 0.000000
vt 0.625000 0.000000
vt 0.625000 0.250000
vt 0.375000 0.250000
vt 0.625000 0.500000
vt 0.375000 0.500000
vt 0.625000 0.750000
vt 0.375000 0.750000
vt 0.067070 0.989468
vt 0.067070 0.228823
vt 0.084504 0.228823
vt 0.084505 0.989468
vt 0.125000 0.500000
vt 0.125000 0.750000
vt 0.875000 0.500000
vt 0.875000 0.750000
vt 0.375000 0.000000
vt 0.625000 0.000000
vt 0.625000 0.250000
vt 0.375000 0.250000
vt 0.625000 0.500000
vt 0.375000 0.500000
vt 0.625000 0.750000
vt 0.375000 0.750000
vt 0.044443 0.970003
vt 0.044443 0.269490
vt 0.098799 0.269490
vt 0.098799 0.970003
vt 0.125000 0.500000
vt 0.125000 0.750000
vt 0.875000 0.500000
vt 0.875000 0.750000
vt 0.375000 0.000000
vt 0.625000 0.000000
vt 0.625000 0.250000
vt 0.375000 0.250000
vt 0.044443 0.970003
vt 0.044443 0.269490
vt 0.098799 0.269490
vt 0.098799 0.970003
vt 0.375000 0.500000
vt 0.625000 0.500000
vt 0.625000 0.750000
vt 0.375000 0.750000
vt 0.625000 1.000000
vt 0.375000 1.000000
vt 0.125000 0.500000
vt 0.125000 0.750000
vt 0.875000 0.500000
vt 0.875000 0.750000
vn -1.0000 0.0000 0.0000
vn 0.0000 0.0000 -1.0000
vn 1.0000 0.0000 0.0000
vn 0.0000 0.0000 1.0000
vn 0.0000 -1.0000 0.0000
vn 0.0000 1.0000 0.0000
usemtl Material.001
s off
f 1/1/1 2/2/1 4/3/1 3/4/1
f 3/5/2 4/6/2 8/7/2 7/8/2
f 7/9/3 8/10/3 6/11/3 5/12/3
f 5/13/4 6/14/4 2/15/4 1/16/4
f 3/17/5 7/18/5 5/19/5 1/20/5
f 8/21/6 4/22/6 2/23/6 6/24/6
f 9/25/3 10/26/3 12/27/3 11/28/3
f 11/29/4 12/30/4 16/31/4 15/32/4
f 15/33/1 16/34/1 14/35/1 13/36/1
f 13/37/2 14/38/2 10/39/2 9/40/2
f 11/41/5 15/42/5 13/43/5 9/44/5
f 16/45/6 12/46/6 10/47/6 14/48/6
f 17/49/3 18/50/3 20/51/3 19/52/3
f 19/53/4 20/54/4 24/55/4 23/56/4
f 23/57/1 24/58/1 22/59/1 21/60/1
f 21/61/2 22/62/2 18/63/2 17/64/2
f 19/65/5 23/66/5 21/67/5 17/68/5
f 24/69/6 20/70/6 18/71/6 22/72/6
f 25/73/3 26/74/3 28/75/3 27/76/3
f 27/77/4 28/78/4 32/79/4 31/80/4
f 31/81/1 32/82/1 30/83/1 29/84/1
f 29/85/2 30/86/2 26/87/2 25/88/2
f 27/89/5 31/90/5 29/91/5 25/92/5
f 32/93/6 28/94/6 26/95/6 30/96/6
f 33/97/3 34/98/3 36/99/3 35/100/3
f 35/101/4 36/102/4 40/103/4 39/104/4
f 39/105/1 40/106/1 38/107/1 37/108/1
f 37/109/2 38/110/2 34/111/2 33/112/2
f 35/113/5 39/114/5 37/115/5 33/116/5
f 40/117/6 36/118/6 34/119/6 38/120/6
f 41/121/5 42/122/5 44/123/5 43/124/5
f 43/125/4 44/126/4 48/127/4 47/128/4
f 47/129/6 48/130/6 46/131/6 45/132/6
f 45/132/2 46/131/2 42/133/2 41/134/2
f 43/135/1 47/129/1 45/132/1 41/136/1
f 48/130/3 44/137/3 42/138/3 46/131/3
f 49/139/5 50/140/5 52/141/5 51/142/5
f 51/142/4 52/141/4 56/143/4 55/144/4
f 55/144/6 56/143/6 54/145/6 53/146/6
f 53/147/2 54/148/2 50/149/2 49/150/2
f 51/151/1 55/144/1 53/146/1 49/152/1
f 56/143/3 52/153/3 50/154/3 54/145/3
f 57/155/5 58/156/5 60/157/5 59/158/5
f 59/158/3 60/157/3 64/159/3 63/160/3
f 63/160/6 64/159/6 62/161/6 61/162/6
f 61/163/1 62/164/1 58/165/1 57/166/1
f 59/167/4 63/160/4 61/162/4 57/168/4
f 64/159/2 60/169/2 58/170/2 62/161/2
f 65/171/5 66/172/5 68/173/5 67/174/5
f 67/175/3 68/176/3 72/177/3 71/178/3
f 71/179/6 72/180/6 70/181/6 69/182/6
f 69/182/1 70/181/1 66/183/1 65/184/1
f 67/185/4 71/179/4 69/182/4 65/186/4
f 72/180/2 68/187/2 66/188/2 70/181/2
